<svg width="24" height="24" viewBox="0 0 24 24" fill="none" xmlns="http://www.w3.org/2000/svg">
<path fill-rule="evenodd" clip-rule="evenodd" d="M3.0835 9.25687C3.09622 8.66987 3.14518 7.50487 3.23722 7.12987C3.7072 5.02087 5.30317 3.68087 7.58452 3.48987H16.4162C18.678 3.69087 20.2935 5.03987 20.7635 7.12987C20.8546 7.49487 20.9035 8.66887 20.9162 9.25687H3.0835Z" fill="#040415"/>
<path fill-rule="evenodd" clip-rule="evenodd" d="M8.33767 6.59C8.76848 6.59 9.09159 6.261 9.09159 5.82V2.771C9.09159 2.33 8.76848 2 8.33767 2C7.90686 2 7.58375 2.33 7.58375 2.771V5.82C7.58375 6.261 7.90686 6.59 8.33767 6.59ZM3.08008 16.87V9.257H20.9197V16.931C20.9197 20.07 18.9614 22 15.8282 22H8.16172C5.0579 22 3.08008 20.03 3.08008 16.87ZM7.99527 14.41C7.54487 14.431 7.17281 14.07 7.15323 13.611C7.15323 13.151 7.50571 12.771 7.95611 12.75C8.39671 12.75 8.75899 13.101 8.76878 13.55C8.78836 14.011 8.43588 14.391 7.99527 14.41ZM12.0195 14.41C11.5691 14.431 11.197 14.07 11.1774 13.611C11.1774 13.151 11.5299 12.771 11.9803 12.75C12.4209 12.75 12.7832 13.101 12.793 13.55C12.8126 14.011 12.4601 14.391 12.0195 14.41ZM16.0143 18.09C15.5639 18.08 15.2016 17.7 15.2016 17.24C15.1918 16.78 15.5541 16.401 16.0045 16.391H16.0143C16.4745 16.391 16.8465 16.771 16.8465 17.24C16.8465 17.71 16.4745 18.09 16.0143 18.09ZM11.1774 17.24C11.197 17.7 11.5691 18.061 12.0195 18.04C12.4601 18.021 12.8126 17.641 12.793 17.181C12.7832 16.731 12.4209 16.38 11.9803 16.38C11.5299 16.401 11.1774 16.78 11.1774 17.24ZM7.14343 17.24C7.16302 17.7 7.53508 18.061 7.98548 18.04C8.42608 18.021 8.77857 17.641 8.75899 17.181C8.74919 16.731 8.38692 16.38 7.94631 16.38C7.49592 16.401 7.14343 16.78 7.14343 17.24ZM15.2114 13.601C15.2114 13.141 15.5639 12.771 16.0143 12.761C16.4549 12.761 16.8074 13.12 16.827 13.561C16.8367 14.021 16.4843 14.401 16.0437 14.41C15.5933 14.42 15.2212 14.07 15.2114 13.611V13.601ZM16.4158 5.82C16.4158 6.261 16.0829 6.59 15.6619 6.59C15.2311 6.59 14.908 6.261 14.908 5.82V2.771C14.908 2.33 15.2311 2 15.6619 2C16.0829 2 16.4158 2.33 16.4158 2.771V5.82Z" fill="#CDCDD0"/>
</svg>
