<svg width="20" height="20" viewBox="0 0 20 20" fill="none" xmlns="http://www.w3.org/2000/svg">
<path fill-rule="evenodd" clip-rule="evenodd" d="M13.5355 6.46449C13.2101 6.13905 12.6825 6.13905 12.357 6.46449L10 8.82151L7.64298 6.46449C7.31754 6.13905 6.7899 6.13905 6.46447 6.46449C6.13903 6.78993 6.13903 7.31756 6.46447 7.643L8.82149 10L6.46447 12.357C6.13903 12.6825 6.13903 13.2101 6.46447 13.5356C6.7899 13.861 7.31754 13.861 7.64298 13.5356L10 11.1785L12.357 13.5356C12.6825 13.861 13.2101 13.861 13.5355 13.5356C13.861 13.2101 13.861 12.6825 13.5355 12.357L11.1785 10L13.5355 7.643C13.861 7.31756 13.861 6.78993 13.5355 6.46449Z" fill="#E3524F"/>
</svg>
