<svg width="25" height="16" viewBox="0 0 25 16" fill="none" xmlns="http://www.w3.org/2000/svg">
<path d="M22.3744 2.09018C21.2343 2.10951 20.2874 3.11434 20.3454 4.25444C20.3647 4.89212 20.6739 5.43318 21.1377 5.80033C18.7415 9.00806 16.3068 9.25927 13.4855 3.94526C14.4903 3.44284 15.0507 2.16748 14.3164 0.892116C13.9686 0.273759 13.2536 -0.0354201 12.5386 0.00322727C12.5193 0.00322727 12.5193 0.00322727 12.5 0.00322727C12.5 0.00322727 12.4807 0.00322727 12.4614 0.00322727C11.7464 -0.0160964 11.0507 0.273759 10.6836 0.892116C9.94928 2.16748 10.5097 3.44284 11.5145 3.94526C8.69324 9.25927 6.25845 9.00806 3.86232 5.80033C4.32609 5.43318 4.63527 4.87279 4.65459 4.25444C4.69324 3.11434 3.7657 2.10951 2.6256 2.09018C1.44686 2.07086 0.5 2.9984 0.5 4.17714C0.5 5.31724 1.42754 6.2641 2.58696 6.2641C2.66425 6.2641 2.76087 6.2641 2.83816 6.24477L3.63043 14.0129C3.68841 14.6312 4.21014 15.095 4.8285 15.095H20.1715C20.7899 15.095 21.3116 14.6312 21.3696 14.0129L22.1618 6.24477C22.2391 6.2641 22.3164 6.2641 22.413 6.2641C23.5531 6.2641 24.5 5.33656 24.5 4.17714C24.5 2.9984 23.5338 2.07086 22.3744 2.09018Z" fill="#FFCA00"/>
</svg>
