<svg width="24" height="24" viewBox="0 0 24 24" fill="none" xmlns="http://www.w3.org/2000/svg">
<path fill-rule="evenodd" clip-rule="evenodd" d="M15.916 10.4164L16.7178 9.40645C17.0849 8.92988 17.2154 8.3789 17.0931 7.81788C16.987 7.30787 16.6771 6.82293 16.2121 6.45505L15.0782 5.54372C14.0912 4.74943 12.8676 4.83304 12.1661 5.74438L11.3928 6.71341C11.3112 6.81708 11.3251 6.96591 11.4262 7.04951C11.6781 7.25541 12.1687 7.65666 12.7379 8.12222C13.7334 8.93656 14.9695 9.94764 15.5897 10.4541C15.69 10.536 15.8352 10.5193 15.916 10.4164ZM13.7714 17.4081H18.1608C18.5891 17.4081 18.9374 17.7651 18.9374 18.204C18.9374 18.6438 18.5891 19 18.1608 19H13.7714C13.3431 19 12.9948 18.6438 12.9948 18.204C12.9948 17.7651 13.3431 17.4081 13.7714 17.4081Z" fill="#CDCDD0"/>
<path fill-rule="evenodd" clip-rule="evenodd" d="M10.7133 8.05221L14.8849 11.4656C14.9855 11.5472 15.0027 11.697 14.9242 11.8013L9.97857 18.3267C9.66768 18.7298 9.20953 18.9579 8.71865 18.9663L6.01882 19C5.87483 19.0017 5.74884 18.9007 5.71611 18.7559L5.10251 16.0545C4.99616 15.558 5.10251 15.0447 5.4134 14.6491L10.3835 8.09261C10.4637 7.98741 10.6118 7.9689 10.7133 8.05221" fill="#040415"/>
</svg>
