<svg width="24" height="24" viewBox="0 0 24 24" fill="none" xmlns="http://www.w3.org/2000/svg">
<path fill-rule="evenodd" clip-rule="evenodd" d="M20.4179 4.89844C21.2416 4.89844 21.9111 5.56214 21.9111 6.37867C21.9111 7.1963 21.2416 7.86 20.4179 7.86H13.901C13.0762 7.86 12.4066 7.1963 12.4066 6.37867C12.4066 5.56214 13.0762 4.89844 13.901 4.89844H20.4179ZM3.58369 15.9581H10.1006C10.9254 15.9581 11.5949 16.6218 11.5949 17.4394C11.5949 18.2559 10.9254 18.9207 10.1006 18.9207H3.58369C2.75889 18.9207 2.08936 18.2559 2.08936 17.4394C2.08936 16.6218 2.75889 15.9581 3.58369 15.9581Z" fill="#CDCDD0"/>
<path fill-rule="evenodd" clip-rule="evenodd" d="M5.49758 9.75821C7.38064 9.75821 8.90581 8.24523 8.90581 6.37856C8.90581 4.51298 7.38064 3 5.49758 3C3.61562 3 2.08936 4.51298 2.08936 6.37856C2.08936 8.24523 3.61562 9.75821 5.49758 9.75821ZM18.5029 20.7778C20.386 20.7778 21.9111 19.2648 21.9111 17.3992C21.9111 15.5325 20.386 14.0196 18.5029 14.0196C16.621 14.0196 15.0947 15.5325 15.0947 17.3992C15.0947 19.2648 16.621 20.7778 18.5029 20.7778Z" fill="#040415"/>
</svg>
