<svg width="20" height="20" viewBox="0 0 20 20" fill="none" xmlns="http://www.w3.org/2000/svg">
<path fill-rule="evenodd" clip-rule="evenodd" d="M14.0701 4.26245H11.6176C11.0066 4.26649 10.4265 3.99471 10.0393 3.523L9.23167 2.40643C8.85098 1.93059 8.27092 1.65754 7.66085 1.66699H5.92701C2.81499 1.66699 1.66651 3.49343 1.66651 6.59911V9.95621C1.66264 10.3254 18.3295 10.3249 18.3306 9.95621V8.98014C18.3454 5.87445 17.2266 4.26245 14.0701 4.26245Z" fill="#AFB4FF"/>
<path fill-rule="evenodd" clip-rule="evenodd" d="M17.36 5.45299C17.6266 5.76472 17.8326 6.12331 17.9675 6.5104C18.233 7.30597 18.3559 8.14201 18.3306 8.98016V13.3577C18.3295 13.7264 18.3023 14.0946 18.2491 14.4595C18.1478 15.1034 17.9212 15.7214 17.5822 16.2785C17.4264 16.5476 17.2372 16.7961 17.0191 17.018C16.0318 17.9241 14.7206 18.3958 13.381 18.3268H6.60868C5.26692 18.3953 3.95368 17.9238 2.96318 17.018C2.74767 16.7957 2.56098 16.5472 2.40746 16.2785C2.07046 15.7218 1.84875 15.1032 1.75542 14.4595C1.69608 14.0952 1.66634 13.7267 1.6665 13.3577V8.98016C1.66636 8.61456 1.68615 8.24923 1.72578 7.88577C1.73412 7.82201 1.74662 7.75928 1.75899 7.6972C1.77961 7.59371 1.79988 7.49203 1.79988 7.39034C1.87509 6.95174 2.0123 6.52601 2.2074 6.12589C2.78535 4.89101 3.97088 4.26247 5.91218 4.26247H14.0627C15.15 4.17838 16.2292 4.50571 17.0858 5.17939C17.1844 5.26304 17.2761 5.35454 17.36 5.45299ZM5.80845 12.951H14.1961H14.2109C14.3949 12.959 14.5745 12.8931 14.7096 12.7681C14.8446 12.643 14.9238 12.4692 14.9296 12.2855C14.94 12.124 14.8869 11.9648 14.7814 11.8418C14.6602 11.6766 14.468 11.5779 14.2628 11.5756H5.80845C5.42788 11.5756 5.11936 11.8835 5.11936 12.2633C5.11936 12.6431 5.42788 12.951 5.80845 12.951Z" fill="white"/>
</svg>
