<svg width="20" height="20" viewBox="0 0 20 20" fill="none" xmlns="http://www.w3.org/2000/svg">
<path fill-rule="evenodd" clip-rule="evenodd" d="M6.08008 5.37169C6.08008 3.32919 7.79657 1.66669 9.90627 1.66669H14.0999C16.2044 1.66669 17.9166 3.32502 17.9166 5.36335V14.6267C17.9166 16.67 16.201 18.3334 14.0913 18.3334H9.89767C7.79313 18.3334 6.08008 16.6742 6.08008 14.635V13.8517V5.37169Z" fill="#CDCDD0"/>
<path fill-rule="evenodd" clip-rule="evenodd" d="M13.3647 9.54481L10.8914 7.12064C10.6358 6.87064 10.2244 6.87064 9.96965 7.12231C9.71572 7.37398 9.71656 7.77981 9.97134 8.02981L11.3256 9.35731H2.73524C2.37551 9.35731 2.0835 9.64481 2.0835 9.99981C2.0835 10.354 2.37551 10.6406 2.73524 10.6406H11.3256L9.97134 11.969C9.71656 12.219 9.71572 12.6248 9.96965 12.8765C10.0975 13.0023 10.2642 13.0656 10.4318 13.0656C10.5977 13.0656 10.7644 13.0023 10.8914 12.8781L13.3647 10.454C13.4874 10.3331 13.5568 10.1698 13.5568 9.99981C13.5568 9.82898 13.4874 9.66564 13.3647 9.54481" fill="#040415"/>
</svg>
