<svg width="240" height="74" viewBox="0 0 240 74" fill="none" xmlns="http://www.w3.org/2000/svg">
<path fill-rule="evenodd" clip-rule="evenodd" d="M45.5371 22.2692C46.9864 20.8766 46.8328 20.723 48.342 22.2692L55.2141 29.1292C56.6624 30.5526 56.5856 30.6294 55.2142 31.9292L37.6383 49.4764C36.8637 50.2496 35.6079 50.2496 34.8333 49.4764L31.4601 46.1092C31.3052 45.9782 31.1545 45.8398 31.0084 45.6939L25.6358 40.3309C22.7685 37.4687 22.7685 32.8281 25.6358 29.9659C28.5031 27.1037 33.1519 27.1037 36.0192 29.9659L36.922 30.867C37.885 32.2061 38.2041 33.5279 38.2041 35.3021C38.2041 36.2694 38.0355 37.1975 37.7261 38.0586C38.3826 36.8835 38.7566 35.5297 38.7566 34.0886C38.7566 32.4866 38.5156 31.3382 37.7171 30.0779L45.5371 22.2692Z" fill="white"/>
<path fill-rule="evenodd" clip-rule="evenodd" d="M35.8414 0.0077042C36.0935 0.00257586 36.3462 0 36.5994 0C36.8526 0 37.1053 0.0025757 37.3573 0.00770388L37.2458 5.4922C37.0309 5.48782 36.8154 5.48563 36.5994 5.48563C36.3834 5.48563 36.1679 5.48782 35.953 5.4922L35.8414 0.0077042ZM38.8666 0.0691683C39.3713 0.100047 39.8733 0.141168 40.3725 0.192334L39.8131 5.64937C39.3885 5.60584 38.9613 5.57085 38.5316 5.54456L38.8666 0.0691683ZM32.8263 0.192336C33.3255 0.141169 33.8275 0.100049 34.3321 0.0691693L34.6672 5.54456C34.2375 5.57085 33.8102 5.60584 33.3857 5.64937L32.8263 0.192336ZM41.8749 0.377758C42.376 0.450151 42.8739 0.532705 43.3684 0.625209L42.3596 6.01729C41.9396 5.9387 41.5165 5.86855 41.0906 5.80702L41.8749 0.377758ZM29.8304 0.625213C30.3248 0.532708 30.8227 0.450153 31.3239 0.37776L32.1082 5.80703C31.6823 5.86856 31.2592 5.93871 30.8391 6.01729L29.8304 0.625213ZM44.8501 0.934407C45.3431 1.04803 45.8323 1.17161 46.3175 1.30493L44.8641 6.59451C44.4521 6.48132 44.0367 6.37638 43.6181 6.2799L44.8501 0.934407ZM26.8813 1.30493C27.3665 1.17162 27.8557 1.04803 28.3487 0.93441L29.5807 6.2799C29.162 6.37639 28.7466 6.48132 28.3347 6.59452L26.8813 1.30493ZM47.7681 1.7362C48.2496 1.89034 48.7268 2.05417 49.1994 2.22747L47.3109 7.37777C46.9096 7.23063 46.5045 7.09153 46.0957 6.96067L47.7681 1.7362ZM23.9994 2.22747C24.472 2.05418 24.9492 1.89034 25.4307 1.7362L27.1031 6.96067C26.6943 7.09154 26.2891 7.23064 25.8879 7.37777L23.9994 2.22747ZM50.6099 2.77826C51.0769 2.97191 51.539 3.17494 51.9959 3.3871L49.6858 8.36258C49.2977 8.18236 48.9052 8.00993 48.5086 7.84548L50.6099 2.77826ZM21.2028 3.38711C21.6598 3.17494 22.1219 2.97191 22.5889 2.77826L24.6901 7.84548C24.2936 8.00993 23.9011 8.18237 23.513 8.36258L21.2028 3.38711ZM53.3551 4.05282C53.804 4.28435 54.2475 4.52488 54.6852 4.77416L51.9708 9.54114C51.5987 9.32927 51.2219 9.12487 50.8405 8.92814L53.3551 4.05282ZM18.5135 4.77416C18.9513 4.52488 19.3948 4.28435 19.8436 4.05282L22.3583 8.92814C21.9769 9.12487 21.6 9.32927 21.2279 9.54114L18.5135 4.77416ZM15.9491 6.37828C16.3648 6.0937 16.7867 5.81745 17.2146 5.54979L20.1238 10.2005C19.76 10.428 19.4012 10.6629 19.0477 10.9049L15.9491 6.37828ZM55.9841 5.54979C56.412 5.81745 56.834 6.0937 57.2497 6.37828L54.1511 10.9049C53.7975 10.6629 53.4388 10.428 53.075 10.2005L55.9841 5.54979ZM13.5258 8.18806C13.9168 7.87012 14.3146 7.56008 14.7188 7.25819L18.0013 11.6533C17.6575 11.9101 17.3191 12.1739 16.9864 12.4444L13.5258 8.18806ZM58.4799 7.25819C58.8842 7.56008 59.2819 7.87012 59.673 8.18806L56.2124 12.4444C55.8797 12.1739 55.5413 11.9101 55.1974 11.6533L58.4799 7.25819ZM11.2598 10.1906C11.6235 9.84155 11.9944 9.49996 12.3722 9.16607L16.0048 13.2765C15.6833 13.5607 15.3677 13.8513 15.0583 14.1483L11.2598 10.1906ZM60.8266 9.16607C61.2044 9.49997 61.5753 9.84155 61.9389 10.1906L58.1405 14.1483C57.831 13.8513 57.5154 13.5607 57.1939 13.2765L60.8266 9.16607ZM9.16606 12.3722C9.49996 11.9944 9.84154 11.6235 10.1906 11.2599L14.1483 15.0583C13.8513 15.3678 13.5607 15.6833 13.2765 16.0048L9.16606 12.3722ZM63.0082 11.2599C63.3572 11.6235 63.6988 11.9944 64.0327 12.3722L59.9222 16.0048C59.6381 15.6833 59.3474 15.3678 59.0504 15.0583L63.0082 11.2599ZM7.25818 14.7188C7.56008 14.3146 7.87011 13.9168 8.18805 13.5258L12.4444 16.9864C12.1739 17.3191 11.9101 17.6575 11.6533 18.0013L7.25818 14.7188ZM65.0107 13.5258C65.3287 13.9169 65.6387 14.3146 65.9406 14.7188L61.5454 18.0013C61.2886 17.6575 61.0249 17.3191 60.7544 16.9864L65.0107 13.5258ZM5.54978 17.2146C5.81744 16.7867 6.09369 16.3648 6.37828 15.9491L10.9049 19.0477C10.6629 19.4012 10.428 19.76 10.2005 20.1238L5.54978 17.2146ZM66.8205 15.9491C67.1051 16.3648 67.3813 16.7867 67.649 17.2146L62.9983 20.1238C62.7707 19.76 62.5358 19.4012 62.2938 19.0477L66.8205 15.9491ZM4.05282 19.8437C4.28435 19.3948 4.52488 18.9513 4.77416 18.5135L9.54113 21.2279C9.32926 21.6 9.12486 21.9769 8.92813 22.3583L4.05282 19.8437ZM68.4246 18.5135C68.6739 18.9513 68.9144 19.3948 69.1459 19.8437L64.2706 22.3583C64.0739 21.9769 63.8695 21.6 63.6576 21.2279L68.4246 18.5135ZM69.8117 21.2028C70.0238 21.6598 70.2268 22.1219 70.4205 22.5889L65.3533 24.6902C65.1888 24.2936 65.0164 23.9011 64.8362 23.513L69.8117 21.2028ZM2.77826 22.5889C2.97191 22.1219 3.17494 21.6598 3.3871 21.2028L8.36258 23.513C8.18236 23.9011 8.00992 24.2936 7.84547 24.6902L2.77826 22.5889ZM70.9713 23.9994C71.1446 24.472 71.3084 24.9492 71.4626 25.4307L66.2381 27.1031C66.1072 26.6943 65.9681 26.2892 65.821 25.8879L70.9713 23.9994ZM1.7362 25.4307C1.89034 24.9492 2.05417 24.472 2.22746 23.9994L7.37776 25.8879C7.23063 26.2892 7.09153 26.6943 6.96066 27.1031L1.7362 25.4307ZM71.8938 26.8813C72.0271 27.3665 72.1507 27.8557 72.2644 28.3487L66.9189 29.5807C66.8224 29.1621 66.7174 28.7467 66.6042 28.3347L71.8938 26.8813ZM0.934406 28.3487C1.04803 27.8557 1.17161 27.3665 1.30493 26.8813L6.59451 28.3347C6.48131 28.7467 6.37638 29.1621 6.27989 29.5807L0.934406 28.3487ZM72.5735 29.8304C72.6661 30.3249 72.7486 30.8228 72.821 31.3239L67.3917 32.1082C67.3302 31.6823 67.2601 31.2592 67.1815 30.8392L72.5735 29.8304ZM0.377757 31.3239C0.45015 30.8228 0.532704 30.3249 0.625209 29.8304L6.01728 30.8392C5.9387 31.2592 5.86855 31.6823 5.80702 32.1082L0.377757 31.3239ZM73.0064 32.8263C73.0576 33.3255 73.0987 33.8275 73.1296 34.3322L67.6542 34.6672C67.6279 34.2375 67.5929 33.8103 67.5494 33.3857L73.0064 32.8263ZM0.0691682 34.3322C0.100047 33.8275 0.141168 33.3255 0.192334 32.8263L5.64936 33.3857C5.60584 33.8103 5.57084 34.2375 5.54455 34.6672L0.0691682 34.3322ZM73.191 35.8414C73.1962 36.0935 73.1988 36.3462 73.1988 36.5994C73.1988 36.8526 73.1962 37.1053 73.191 37.3574L67.7066 37.2458C67.7109 37.0309 67.7131 36.8154 67.7131 36.5994C67.7131 36.3834 67.7109 36.1679 67.7066 35.953L73.191 35.8414ZM0 36.5994C0 36.3462 0.0025757 36.0935 0.00770387 35.8415L5.49219 35.953C5.48782 36.1679 5.48562 36.3834 5.48562 36.5994C5.48562 36.8154 5.48782 37.0309 5.49219 37.2458L0.0077042 37.3574C0.00257586 37.1053 0 36.8526 0 36.5994ZM73.1296 38.8666C73.0987 39.3713 73.0576 39.8733 73.0064 40.3725L67.5494 39.8131C67.5929 39.3885 67.6279 38.9613 67.6542 38.5316L73.1296 38.8666ZM0.192336 40.3725C0.141169 39.8733 0.100049 39.3713 0.0691692 38.8667L5.54455 38.5316C5.57084 38.9613 5.60584 39.3885 5.64936 39.8131L0.192336 40.3725ZM72.821 41.8749C72.7486 42.376 72.6661 42.8739 72.5735 43.3684L67.1815 42.3596C67.2601 41.9396 67.3302 41.5165 67.3917 41.0906L72.821 41.8749ZM0.625212 43.3684C0.532707 42.874 0.450153 42.3761 0.37776 41.8749L5.80702 41.0906C5.86855 41.5165 5.9387 41.9396 6.01728 42.3597L0.625212 43.3684ZM72.2644 44.8501C72.1507 45.3431 72.0272 45.8323 71.8938 46.3175L66.6042 44.8641C66.7174 44.4522 66.8224 44.0368 66.9189 43.6181L72.2644 44.8501ZM1.30493 46.3175C1.17161 45.8323 1.04803 45.3431 0.93441 44.8501L6.27989 43.6181C6.37638 44.0368 6.48132 44.4522 6.59451 44.8641L1.30493 46.3175ZM71.4626 47.7681C71.3084 48.2496 71.1446 48.7268 70.9713 49.1994L65.821 47.3109C65.9681 46.9096 66.1072 46.5045 66.2381 46.0957L71.4626 47.7681ZM2.22747 49.1994C2.05417 48.7268 1.89034 48.2497 1.7362 47.7681L6.96066 46.0957C7.09153 46.5045 7.23063 46.9096 7.37777 47.3109L2.22747 49.1994ZM70.4205 50.6099C70.2269 51.0769 70.0238 51.539 69.8117 51.996L64.8362 49.6858C65.0164 49.2977 65.1888 48.9052 65.3533 48.5087L70.4205 50.6099ZM3.3871 51.996C3.17494 51.539 2.97191 51.0769 2.77826 50.61L7.84547 48.5087C8.00992 48.9052 8.18236 49.2977 8.36258 49.6858L3.3871 51.996ZM4.77416 54.6853C4.52488 54.2475 4.28435 53.8041 4.05282 53.3552L8.92814 50.8405C9.12486 51.222 9.32926 51.5988 9.54113 51.9709L4.77416 54.6853ZM69.1459 53.3552C68.9144 53.8041 68.6739 54.2475 68.4246 54.6853L63.6576 51.9709C63.8695 51.5988 64.0739 51.222 64.2706 50.8405L69.1459 53.3552ZM6.37827 57.2498C6.09369 56.834 5.81744 56.4121 5.54978 55.9842L10.2005 53.075C10.428 53.4388 10.6629 53.7976 10.9049 54.1511L6.37827 57.2498ZM67.649 55.9842C67.3813 56.4121 67.1051 56.834 66.8205 57.2498L62.2938 54.1511C62.5358 53.7976 62.7707 53.4388 62.9983 53.075L67.649 55.9842ZM8.18805 59.673C7.87011 59.282 7.56007 58.8842 7.25818 58.48L11.6533 55.1975C11.9101 55.5413 12.1739 55.8797 12.4444 56.2124L8.18805 59.673ZM65.9406 58.48C65.6387 58.8842 65.3286 59.282 65.0107 59.673L60.7544 56.2124C61.0249 55.8797 61.2886 55.5413 61.5454 55.1975L65.9406 58.48ZM10.1906 61.939C9.84154 61.5753 9.49996 61.2044 9.16606 60.8266L13.2765 57.194C13.5607 57.5155 13.8513 57.8311 14.1483 58.1405L10.1906 61.939ZM64.0327 60.8266C63.6988 61.2044 63.3572 61.5753 63.0082 61.939L59.0504 58.1405C59.3474 57.8311 59.6381 57.5155 59.9222 57.194L64.0327 60.8266ZM12.3722 64.0328C11.9944 63.6989 11.6235 63.3573 11.2598 63.0083L15.0583 59.0505C15.3677 59.3475 15.6833 59.6382 16.0048 59.9223L12.3722 64.0328ZM61.9389 63.0083C61.5753 63.3573 61.2044 63.6989 60.8266 64.0328L57.1939 59.9223C57.5154 59.6382 57.831 59.3475 58.1405 59.0505L61.9389 63.0083ZM14.7188 65.9406C14.3146 65.6387 13.9168 65.3287 13.5258 65.0108L16.9864 60.7544C17.3191 61.0249 17.6575 61.2887 18.0013 61.5455L14.7188 65.9406ZM59.673 65.0108C59.2819 65.3287 58.8842 65.6387 58.4799 65.9406L55.1974 61.5455C55.5413 61.2887 55.8797 61.0249 56.2124 60.7544L59.673 65.0108ZM17.2146 67.649C16.7867 67.3814 16.3648 67.1051 15.949 66.8205L19.0477 62.2939C19.4012 62.5359 19.76 62.7708 20.1238 62.9984L17.2146 67.649ZM57.2497 66.8205C56.834 67.1051 56.412 67.3814 55.9841 67.649L53.075 62.9984C53.4388 62.7708 53.7975 62.5359 54.1511 62.2939L57.2497 66.8205ZM19.8436 69.146C19.3948 68.9145 18.9513 68.6739 18.5135 68.4247L21.2279 63.6577C21.6 63.8695 21.9769 64.074 22.3583 64.2707L19.8436 69.146ZM54.6852 68.4247C54.2475 68.6739 53.804 68.9145 53.3551 69.146L50.8405 64.2707C51.2219 64.074 51.5987 63.8695 51.9708 63.6577L54.6852 68.4247ZM22.5889 70.4206C22.1219 70.2269 21.6598 70.0239 21.2028 69.8117L23.513 64.8362C23.9011 65.0165 24.2936 65.1889 24.6901 65.3533L22.5889 70.4206ZM51.9959 69.8117C51.539 70.0239 51.0769 70.2269 50.6099 70.4206L48.5086 65.3533C48.9052 65.1889 49.2977 65.0165 49.6858 64.8362L51.9959 69.8117ZM25.4307 71.4626C24.9492 71.3085 24.472 71.1446 23.9994 70.9714L25.8879 65.8211C26.2892 65.9682 26.6943 66.1073 27.1031 66.2382L25.4307 71.4626ZM49.1994 70.9714C48.7268 71.1446 48.2496 71.3085 47.7681 71.4626L46.0957 66.2382C46.5045 66.1073 46.9096 65.9682 47.3109 65.8211L49.1994 70.9714ZM28.3487 72.2644C27.8557 72.1508 27.3665 72.0272 26.8813 71.8939L28.3347 66.6043C28.7466 66.7175 29.162 66.8224 29.5807 66.9189L28.3487 72.2644ZM46.3175 71.8939C45.8323 72.0272 45.3431 72.1508 44.8501 72.2644L43.6181 66.9189C44.0367 66.8224 44.4521 66.7175 44.8641 66.6043L46.3175 71.8939ZM31.3239 72.8211C30.8228 72.7487 30.3249 72.6661 29.8304 72.5736L30.8392 67.1815C31.2592 67.2601 31.6823 67.3303 32.1082 67.3918L31.3239 72.8211ZM43.3684 72.5736C42.8739 72.6661 42.376 72.7487 41.8749 72.8211L41.0906 67.3918C41.5165 67.3303 41.9396 67.2601 42.3596 67.1815L43.3684 72.5736ZM34.3322 73.1297C33.8275 73.0988 33.3255 73.0577 32.8263 73.0065L33.3857 67.5495C33.8103 67.593 34.2375 67.628 34.6672 67.6543L34.3322 73.1297ZM40.3725 73.0065C39.8733 73.0576 39.3713 73.0988 38.8666 73.1297L38.5316 67.6543C38.9613 67.628 39.3885 67.593 39.8131 67.5495L40.3725 73.0065ZM36.5994 73.1988C36.3462 73.1988 36.0935 73.1962 35.8414 73.1911L35.953 67.7066C36.1679 67.711 36.3834 67.7132 36.5994 67.7132C36.8154 67.7132 37.0309 67.711 37.2458 67.7066L37.3573 73.1911C37.1053 73.1962 36.8526 73.1988 36.5994 73.1988Z" fill="white"/>
<path fill-rule="evenodd" clip-rule="evenodd" d="M36.5994 5.48563C19.4157 5.48563 5.48562 19.4157 5.48562 36.5994C5.48562 53.7831 19.4157 67.7132 36.5994 67.7132C53.783 67.7132 67.7131 53.7831 67.7131 36.5994H73.1988C73.1988 56.8127 56.8127 73.1988 36.5994 73.1988C16.3861 73.1988 0 56.8127 0 36.5994C0 16.3861 16.3861 0 36.5994 0C41.0922 0 45.402 0.810817 49.3861 2.29651L47.4694 7.43639C44.0892 6.1759 40.428 5.48563 36.5994 5.48563Z" fill="white"/>
<path d="M89.8506 50.6826V23.4341H100.069C102.162 23.4341 103.918 23.7978 105.338 24.5251C106.766 25.2525 107.843 26.2725 108.571 27.5853C109.307 28.8892 109.675 30.4104 109.675 32.1489C109.675 33.8962 109.302 35.413 108.557 36.6992C107.821 37.9764 106.735 38.9654 105.298 39.6662C103.861 40.358 102.096 40.7039 100.002 40.7039H92.7244V36.606H99.337C100.561 36.606 101.563 36.4375 102.344 36.1004C103.124 35.7545 103.701 35.2533 104.074 34.597C104.455 33.9317 104.646 33.1157 104.646 32.1489C104.646 31.182 104.455 30.3571 104.074 29.6741C103.692 28.9823 103.111 28.459 102.331 28.1042C101.55 27.7405 100.543 27.5587 99.3104 27.5587H94.7867V50.6826H89.8506ZM103.927 38.3357L110.673 50.6826H105.165L98.5387 38.3357H103.927Z" fill="white"/>
<path d="M122.627 51.0818C120.632 51.0818 118.902 50.6427 117.438 49.7646C115.975 48.8865 114.839 47.658 114.032 46.0791C113.234 44.5003 112.835 42.6553 112.835 40.5443C112.835 38.4332 113.234 36.5838 114.032 34.9961C114.839 33.4084 115.975 32.1755 117.438 31.2973C118.902 30.4192 120.632 29.9802 122.627 29.9802C124.623 29.9802 126.353 30.4192 127.816 31.2973C129.28 32.1755 130.411 33.4084 131.209 34.9961C132.016 36.5838 132.42 38.4332 132.42 40.5443C132.42 42.6553 132.016 44.5003 131.209 46.0791C130.411 47.658 129.28 48.8865 127.816 49.7646C126.353 50.6427 124.623 51.0818 122.627 51.0818ZM122.654 47.2234C123.736 47.2234 124.641 46.9262 125.368 46.3319C126.095 45.7288 126.636 44.9216 126.991 43.9104C127.355 42.8993 127.537 41.7728 127.537 40.531C127.537 39.2803 127.355 38.1494 126.991 37.1382C126.636 36.1182 126.095 35.3066 125.368 34.7034C124.641 34.1003 123.736 33.7987 122.654 33.7987C121.545 33.7987 120.623 34.1003 119.886 34.7034C119.159 35.3066 118.614 36.1182 118.25 37.1382C117.895 38.1494 117.718 39.2803 117.718 40.531C117.718 41.7728 117.895 42.8993 118.25 43.9104C118.614 44.9216 119.159 45.7288 119.886 46.3319C120.623 46.9262 121.545 47.2234 122.654 47.2234Z" fill="white"/>
<path d="M149.533 42.0877V30.2463H154.35V50.6826H149.68V47.0504H149.467C149.005 48.1946 148.247 49.1304 147.191 49.8577C146.145 50.5851 144.854 50.9487 143.32 50.9487C141.98 50.9487 140.796 50.6516 139.767 50.0573C138.747 49.4541 137.949 48.5805 137.372 47.4362C136.796 46.2831 136.508 44.8906 136.508 43.2585V30.2463H141.324V42.5134C141.324 43.8084 141.679 44.8373 142.388 45.6002C143.098 46.363 144.029 46.7444 145.182 46.7444C145.892 46.7444 146.579 46.5714 147.245 46.2255C147.91 45.8796 148.455 45.3651 148.881 44.6821C149.316 43.9903 149.533 43.1254 149.533 42.0877Z" fill="white"/>
<path d="M169.507 30.2463V33.9716H157.759V30.2463H169.507ZM160.659 25.35H165.476V44.5358C165.476 45.1833 165.573 45.68 165.768 46.0259C165.973 46.363 166.239 46.5936 166.567 46.7178C166.895 46.8419 167.259 46.904 167.658 46.904C167.959 46.904 168.234 46.8819 168.483 46.8375C168.74 46.7932 168.935 46.7532 169.068 46.7178L169.88 50.4831C169.622 50.5718 169.254 50.6693 168.775 50.7758C168.305 50.8822 167.729 50.9443 167.046 50.962C165.839 50.9975 164.753 50.8157 163.786 50.4165C162.819 50.0085 162.052 49.3788 161.484 48.5272C160.925 47.6757 160.651 46.6113 160.659 45.3341V25.35Z" fill="white"/>
<path d="M173.535 50.6826V30.2463H178.352V50.6826H173.535ZM175.957 27.3458C175.194 27.3458 174.538 27.093 173.988 26.5874C173.438 26.0729 173.163 25.4565 173.163 24.738C173.163 24.0107 173.438 23.3942 173.988 22.8886C174.538 22.3742 175.194 22.1169 175.957 22.1169C176.728 22.1169 177.385 22.3742 177.926 22.8886C178.476 23.3942 178.751 24.0107 178.751 24.738C178.751 25.4565 178.476 26.0729 177.926 26.5874C177.385 27.093 176.728 27.3458 175.957 27.3458Z" fill="white"/>
<path d="M188.121 38.7082V50.6826H183.304V30.2463H187.908V33.7188H188.147C188.617 32.5746 189.367 31.6655 190.396 30.9913C191.434 30.3172 192.715 29.9802 194.241 29.9802C195.651 29.9802 196.88 30.2817 197.926 30.8849C198.982 31.4881 199.798 32.3617 200.375 33.506C200.96 34.6502 201.248 36.0383 201.239 37.6704V50.6826H196.423V38.4155C196.423 37.0495 196.068 35.9807 195.359 35.209C194.658 34.4373 193.687 34.0515 192.445 34.0515C191.602 34.0515 190.853 34.2377 190.196 34.6103C189.549 34.9739 189.039 35.5017 188.666 36.1936C188.303 36.8854 188.121 37.7236 188.121 38.7082Z" fill="white"/>
<path d="M215.183 51.0818C213.134 51.0818 211.364 50.656 209.874 49.8045C208.393 48.9441 207.253 47.7289 206.455 46.159C205.657 44.5801 205.258 42.7219 205.258 40.5842C205.258 38.482 205.657 36.6371 206.455 35.0493C207.262 33.4527 208.389 32.211 209.834 31.324C211.28 30.4281 212.979 29.9802 214.93 29.9802C216.19 29.9802 217.378 30.1842 218.496 30.5922C219.622 30.9913 220.616 31.6122 221.476 32.4549C222.345 33.2975 223.028 34.3708 223.525 35.6747C224.022 36.9697 224.27 38.5131 224.27 40.3048V41.7816H207.519V38.5352H219.653C219.645 37.6128 219.445 36.7923 219.055 36.0738C218.664 35.3465 218.119 34.7744 217.418 34.3575C216.726 33.9406 215.919 33.7322 214.997 33.7322C214.012 33.7322 213.147 33.9716 212.402 34.4506C211.657 34.9207 211.076 35.5416 210.659 36.3133C210.251 37.0761 210.043 37.9143 210.034 38.8279V41.6619C210.034 42.8505 210.251 43.8705 210.686 44.722C211.121 45.5647 211.728 46.2122 212.509 46.6645C213.289 47.108 214.203 47.3298 215.25 47.3298C215.95 47.3298 216.584 47.2322 217.152 47.0371C217.72 46.8331 218.212 46.5359 218.629 46.1457C219.046 45.7554 219.361 45.272 219.574 44.6954L224.071 45.201C223.787 46.3896 223.246 47.4274 222.447 48.3144C221.658 49.1925 220.647 49.8755 219.414 50.3633C218.181 50.8423 216.771 51.0818 215.183 51.0818Z" fill="white"/>
<path d="M228.345 50.6826V30.2463H233.015V33.6523H233.228C233.6 32.4726 234.239 31.5634 235.144 30.9248C236.057 30.2773 237.1 29.9535 238.27 29.9535C238.536 29.9535 238.834 29.9669 239.162 29.9935C239.499 30.0112 239.778 30.0422 240 30.0866V34.5171C239.796 34.4462 239.472 34.3841 239.029 34.3309C238.594 34.2688 238.173 34.2377 237.765 34.2377C236.887 34.2377 236.097 34.4284 235.396 34.8098C234.705 35.1824 234.159 35.7013 233.76 36.3665C233.361 37.0318 233.161 37.799 233.161 38.6683V50.6826H228.345Z" fill="white"/>
</svg>
