<svg width="16" height="16" viewBox="0 0 16 16" fill="none" xmlns="http://www.w3.org/2000/svg">
<path fill-rule="evenodd" clip-rule="evenodd" d="M4.8407 6.56564C5.67187 5.80064 6.78145 5.3335 8.00014 5.3335C9.21882 5.3335 10.3284 5.80064 11.1596 6.56564L13.2068 2.81235C13.5703 2.14598 13.088 1.3335 12.3289 1.3335H10.118C9.63382 1.3335 9.18766 1.59602 8.9525 2.01931L8.00012 3.7336L7.04773 2.01931C6.81257 1.59602 6.36641 1.3335 5.88219 1.3335H3.67133C2.91227 1.3335 2.42996 2.14598 2.79344 2.81235L4.8407 6.56564Z" fill="#FFCD6D"/>
<path d="M12.6668 10.0002C12.6668 12.5775 10.5775 14.6668 8.00016 14.6668C5.42283 14.6668 3.3335 12.5775 3.3335 10.0002C3.3335 7.42283 5.42283 5.3335 8.00016 5.3335C10.5775 5.3335 12.6668 7.42283 12.6668 10.0002Z" fill="#FEA800"/>
<path fill-rule="evenodd" clip-rule="evenodd" d="M7.99984 11.3332C8.73622 11.3332 9.33317 10.7362 9.33317 9.99984C9.33317 9.26346 8.73622 8.6665 7.99984 8.6665C7.26346 8.6665 6.6665 9.26346 6.6665 9.99984C6.6665 10.7362 7.26346 11.3332 7.99984 11.3332Z" fill="#FFCD6D"/>
</svg>
