<svg width="24" height="24" viewBox="0 0 24 24" fill="none" xmlns="http://www.w3.org/2000/svg">
<path fill-rule="evenodd" clip-rule="evenodd" d="M13.9907 19.2284C13.4952 19.1216 10.4762 19.1216 9.9807 19.2284C9.55715 19.3271 9.09912 19.5567 9.09912 20.0603C9.12375 20.5407 9.4025 20.9647 9.78862 21.2336L9.78764 21.2346C10.287 21.6274 10.8731 21.8771 11.4868 21.9668C11.8138 22.0121 12.1467 22.0101 12.4856 21.9668C13.0982 21.8771 13.6843 21.6274 14.1837 21.2346L14.1827 21.2336C14.5689 20.9647 14.8476 20.5407 14.8722 20.0603C14.8722 19.5567 14.4142 19.3271 13.9907 19.2284" fill="#040415"/>
<path fill-rule="evenodd" clip-rule="evenodd" d="M19.7002 11.6453C18.9762 10.7923 18.6472 10.0531 18.6472 8.79716V8.37013C18.6472 6.73354 18.2739 5.67907 17.4623 4.62459C16.2113 2.98699 14.1054 2 12.0438 2H11.9561C9.93783 2 7.89789 2.94167 6.62526 4.5128C5.76929 5.58842 5.35263 6.68822 5.35263 8.37013V8.79716C5.35263 10.0531 5.04531 10.7923 4.29966 11.6453C3.75101 12.2738 3.57568 13.0815 3.57568 13.9557C3.57568 14.8309 3.86035 15.6598 4.43165 16.3336C5.1773 17.1413 6.23027 17.6569 7.3059 17.7466C8.86319 17.9258 10.4205 17.9933 12.0004 17.9933C13.5794 17.9933 15.1367 17.8805 16.695 17.7466C17.7696 17.6569 18.8226 17.1413 19.5682 16.3336C20.1385 15.6598 20.4242 14.8309 20.4242 13.9557C20.4242 13.0815 20.2489 12.2738 19.7002 11.6453" fill="#CDCDD0"/>
</svg>
