<svg width="24" height="24" viewBox="0 0 24 24" fill="none" xmlns="http://www.w3.org/2000/svg">
<path fill-rule="evenodd" clip-rule="evenodd" d="M12.7431 12.7083V17.257C12.7431 17.6673 12.4105 18 12.0002 18C11.59 18 11.2574 17.6673 11.2574 17.257V12.7083H6.7272C6.34452 12.6687 6.05371 12.3461 6.05371 11.9613C6.05371 11.5765 6.34452 11.2539 6.7272 11.2143H11.2494V6.67365C11.289 6.29088 11.6115 6 11.9963 6C12.381 6 12.7035 6.29088 12.7431 6.67365V11.2143H17.2733C17.656 11.2539 17.9468 11.5765 17.9468 11.9613C17.9468 12.3461 17.656 12.6687 17.2733 12.7083H12.7431Z" fill="#040415"/>
</svg>
