<svg width="30" height="29" viewBox="0 0 30 29" fill="none" xmlns="http://www.w3.org/2000/svg">
<path fill-rule="evenodd" clip-rule="evenodd" d="M7.76104 14.8482C9.0078 13.7007 10.6722 13 12.5002 13C14.3282 13 15.9926 13.7007 17.2394 14.8482L20.3102 9.21828C20.8555 8.21872 20.132 7 18.9934 7H15.6771C14.9507 7 14.2815 7.39378 13.9288 8.02871L12.5002 10.6002L11.0716 8.02871C10.7189 7.39378 10.0496 7 9.32328 7H6.007C4.86841 7 4.14494 8.21872 4.69016 9.21828L7.76104 14.8482Z" fill="#D7D9FF"/>
<path d="M19.5 20C19.5 23.866 16.366 27 12.5 27C8.63401 27 5.5 23.866 5.5 20C5.5 16.134 8.63401 13 12.5 13C16.366 13 19.5 16.134 19.5 20Z" fill="#3843FF"/>
<path fill-rule="evenodd" clip-rule="evenodd" d="M12.5 22C13.6046 22 14.5 21.1046 14.5 20C14.5 18.8954 13.6046 18 12.5 18C11.3954 18 10.5 18.8954 10.5 20C10.5 21.1046 11.3954 22 12.5 22Z" fill="#D7D9FF"/>
<circle cx="25.5" cy="4" r="4" fill="#E3524F"/>
</svg>
