<svg width="25" height="24" viewBox="0 0 25 24" fill="none" xmlns="http://www.w3.org/2000/svg">
<path fill-rule="evenodd" clip-rule="evenodd" d="M22.5 12C22.5 17.523 18.023 22 12.5 22C6.977 22 2.5 17.523 2.5 12C2.5 6.478 6.977 2 12.5 2C18.023 2 22.5 6.478 22.5 12Z" fill="#D7D9FF"/>
<path fill-rule="evenodd" clip-rule="evenodd" d="M16.3597 8.70481L14.7397 13.8248C14.6797 14.0348 14.5097 14.2048 14.2997 14.2658L9.19972 15.8648C8.85972 15.9758 8.52972 15.6448 8.63972 15.3048L10.2397 10.1748C10.2997 9.96481 10.4697 9.80481 10.6797 9.73481L15.7997 8.13481C16.1497 8.02481 16.4697 8.35481 16.3597 8.70481Z" fill="#3843FF"/>
</svg>
