<svg width="24" height="24" viewBox="0 0 24 24" fill="none" xmlns="http://www.w3.org/2000/svg">
<path fill-rule="evenodd" clip-rule="evenodd" d="M21.1477 14.37C20.9553 14.07 20.6818 13.77 20.3273 13.58C20.0437 13.44 19.8614 13.21 19.6993 12.94C19.1828 12.08 19.4866 10.95 20.3475 10.44C21.3604 9.87 21.6845 8.6 21.0971 7.61L20.4184 6.43C19.8411 5.44 18.5751 5.09 17.5723 5.67C16.681 6.15 15.5365 5.83 15.02 4.98C14.8579 4.7 14.7667 4.4 14.787 4.1C14.8174 3.71 14.6958 3.34 14.5135 3.04C14.1388 2.42 13.4602 2 12.7107 2H11.2825C10.5432 2.02 9.86454 2.42 9.48979 3.04C9.29735 3.34 9.18593 3.71 9.20619 4.1C9.22645 4.4 9.13529 4.7 8.97323 4.98C8.45668 5.83 7.31216 6.15 6.43098 5.67C5.41813 5.09 4.16219 5.44 3.57474 6.43L2.89613 7.61C2.3188 8.6 2.64292 9.87 3.64564 10.44C4.50656 10.95 4.81042 12.08 4.30399 12.94C4.13181 13.21 3.94949 13.44 3.6659 13.58C3.32153 13.77 3.01767 14.07 2.85562 14.37C2.48086 14.99 2.50112 15.77 2.87587 16.42L3.57474 17.62C3.94949 18.26 4.64836 18.66 5.37761 18.66C5.72198 18.66 6.12712 18.56 6.45124 18.36C6.70445 18.19 7.0083 18.13 7.34254 18.13C8.34527 18.13 9.18593 18.96 9.20619 19.95C9.20619 21.1 10.138 22 11.3129 22H12.6904C13.8552 22 14.787 21.1 14.787 19.95C14.8174 18.96 15.658 18.13 16.6608 18.13C16.9849 18.13 17.2887 18.19 17.5521 18.36C17.8762 18.56 18.2712 18.66 18.6257 18.66C19.3448 18.66 20.0437 18.26 20.4184 17.62L21.1274 16.42C21.4921 15.75 21.5225 14.99 21.1477 14.37" fill="#CDCDD0"/>
<path fill-rule="evenodd" clip-rule="evenodd" d="M12.0118 14.8302C10.4216 14.8302 9.13525 13.5802 9.13525 12.0102C9.13525 10.4402 10.4216 9.18018 12.0118 9.18018C13.6019 9.18018 14.8579 10.4402 14.8579 12.0102C14.8579 13.5802 13.6019 14.8302 12.0118 14.8302" fill="#040415"/>
</svg>
