<svg width="32" height="32" viewBox="0 0 32 32" fill="none" xmlns="http://www.w3.org/2000/svg">
<path fill-rule="evenodd" clip-rule="evenodd" d="M16.1145 29.3334C15.9494 29.3334 15.7856 29.2955 15.6366 29.2184L10.8349 26.7329C9.47099 26.0269 8.40512 25.2346 7.57418 24.3115C5.75121 22.2928 4.73904 19.7014 4.72159 17.0133L4.66655 8.16576C4.65984 7.14464 5.31762 6.22812 6.30293 5.88295L15.1198 2.80913C15.6447 2.62217 16.2286 2.61955 16.7602 2.79998L25.6106 5.7692C26.6013 6.09999 27.2711 7.00998 27.2765 8.02979L27.3329 16.8839C27.3503 19.5681 26.3731 22.1699 24.5796 24.2108C23.7554 25.147 22.7003 25.951 21.3512 26.6701L16.5924 29.2118C16.4447 29.2916 16.2796 29.3321 16.1145 29.3334" fill="#F7CECD"/>
<path fill-rule="evenodd" clip-rule="evenodd" d="M17.4238 15.6333L19.2347 13.8695C19.628 13.4864 19.628 12.8667 19.2347 12.4836C18.8414 12.1005 18.2037 12.1005 17.8104 12.4836L15.9995 14.246L14.19 12.4836C13.7967 12.1005 13.159 12.1005 12.7657 12.4836C12.3724 12.8667 12.3724 13.4864 12.7657 13.8695L14.5766 15.6333L12.7657 17.397C12.3724 17.7801 12.3724 18.3998 12.7657 18.7829C12.963 18.9751 13.2208 19.0705 13.4785 19.0705C13.7349 19.0705 13.9926 18.9751 14.19 18.7829L15.9995 17.0205L17.8104 18.7829C18.0077 18.9751 18.2641 19.0705 18.5219 19.0705C18.7796 19.0705 19.0374 18.9751 19.2347 18.7829C19.628 18.3998 19.628 17.7801 19.2347 17.397L17.4238 15.6333Z" fill="#E3524F"/>
</svg>
