<svg width="32" height="32" viewBox="0 0 32 32" fill="none" xmlns="http://www.w3.org/2000/svg">
<path fill-rule="evenodd" clip-rule="evenodd" d="M16.1152 29.3334C15.9501 29.3334 15.785 29.2955 15.636 29.2184L10.8345 26.7329C9.47204 26.0269 8.40624 25.2346 7.57401 24.3115C5.75249 22.2928 4.73904 19.7014 4.72293 17.0133L4.66655 8.16576C4.65984 7.14464 5.31892 6.22812 6.30418 5.88295L15.1205 2.80913C15.644 2.62217 16.2279 2.61955 16.7608 2.79998L25.6107 5.7692C26.6013 6.09999 27.2711 7.00998 27.2765 8.02979L27.3329 16.8839C27.3503 19.5681 26.3718 22.1699 24.5785 24.2108C23.7556 25.147 22.6992 25.951 21.3502 26.6701L16.5917 29.2118C16.444 29.2916 16.2803 29.3321 16.1152 29.3334" fill="#C3EBC0"/>
<path fill-rule="evenodd" clip-rule="evenodd" d="M15.0923 19.0946C14.8346 19.0959 14.5769 19.003 14.3782 18.8121L11.8224 16.3541C11.4278 15.9724 11.4238 15.3526 11.8144 14.9682C12.205 14.5825 12.8426 14.5786 13.2386 14.9591L15.0776 16.7268L19.5676 12.2997C19.9596 11.914 20.5972 11.9101 20.9918 12.2906C21.3878 12.6723 21.3918 13.2934 21.0012 13.6765L15.8024 18.803C15.6064 18.9965 15.35 19.0932 15.0923 19.0946" fill="#3BA935"/>
</svg>
