<svg width="20" height="20" viewBox="0 0 20 20" fill="none" xmlns="http://www.w3.org/2000/svg">
<path fill-rule="evenodd" clip-rule="evenodd" d="M9.99984 13.2243C8.20309 13.2243 6.7478 11.7778 6.7478 10C6.7478 8.21418 8.20309 6.76772 9.99984 6.76772C11.7885 6.76772 13.2437 8.21418 13.2437 10C13.2437 11.7778 11.7885 13.2243 9.99984 13.2243M18.2844 9.75762C17.4145 7.74549 16.2031 6.13661 14.7803 5.03842C13.3576 3.93135 11.7234 3.33337 9.99984 3.33337H9.99171C6.55268 3.33337 3.45512 5.73257 1.71528 9.75762C1.65024 9.91034 1.65024 10.0889 1.71528 10.2344C3.45512 14.2586 6.55268 16.6667 9.99171 16.6667H9.99984C13.447 16.6667 16.5446 14.2586 18.2844 10.2344C18.3494 10.0889 18.3494 9.91034 18.2844 9.75762" fill="#DDF2FC"/>
<path fill-rule="evenodd" clip-rule="evenodd" d="M12.0257 9.99737C12.0257 11.1044 11.1151 12.0095 10.0013 12.0095C8.87932 12.0095 7.96875 11.1044 7.96875 9.99737C7.96875 9.86 7.98501 9.73152 8.0094 9.60222H8.05005C8.95249 9.60222 9.6842 8.89111 9.71672 8.00142C9.80615 7.98606 9.90371 7.97717 10.0013 7.97717C11.1151 7.97717 12.0257 8.88222 12.0257 9.99737" fill="#12A4ED"/>
</svg>
