<svg width="24" height="24" viewBox="0 0 24 24" fill="none" xmlns="http://www.w3.org/2000/svg">
<path d="M18.9377 8H5.0625V19C5.0625 20.6569 6.39368 22 8.03577 22H15.9645C17.6066 22 18.9377 20.6569 18.9377 19V8Z" fill="#CDCDD0"/>
<path d="M10.0179 12C9.47058 12 9.02686 12.4477 9.02686 13V17C9.02686 17.5523 9.47058 18 10.0179 18C10.5653 18 11.009 17.5523 11.009 17V13C11.009 12.4477 10.5653 12 10.0179 12Z" fill="#040415"/>
<path d="M13.9823 12C13.4349 12 12.9912 12.4477 12.9912 13V17C12.9912 17.5523 13.4349 18 13.9823 18C14.5297 18 14.9734 17.5523 14.9734 17V13C14.9734 12.4477 14.5297 12 13.9823 12Z" fill="#040415"/>
<path fill-rule="evenodd" clip-rule="evenodd" d="M8.03565 6V5C8.03565 3.34315 9.36682 2 11.0089 2H12.9911C14.6332 2 15.9644 3.34315 15.9644 5V6H18.9376C19.485 6 19.9287 6.44772 19.9287 7C19.9287 7.55228 19.485 8 18.9376 8H5.06238C4.51501 8 4.07129 7.55228 4.07129 7C4.07129 6.44772 4.51501 6 5.06238 6H8.03565ZM10.0178 5C10.0178 4.44772 10.4615 4 11.0089 4H12.9911C13.5385 4 13.9822 4.44772 13.9822 5V6H10.0178V5Z" fill="#040415"/>
</svg>
