<svg width="24" height="24" viewBox="0 0 24 24" fill="none" xmlns="http://www.w3.org/2000/svg">
<path fill-rule="evenodd" clip-rule="evenodd" d="M11.9497 12.467C14.265 12.467 16.1215 10.5831 16.1215 8.23351C16.1215 5.88306 14.265 4 11.9497 4C9.63444 4 7.77795 5.88306 7.77795 8.23351C7.77795 10.5831 9.63444 12.467 11.9497 12.467ZM21.0072 9.21926C21.6062 6.84179 19.85 4.70658 17.6137 4.70658C17.3706 4.70658 17.138 4.73359 16.9109 4.77952C16.8807 4.78673 16.847 4.80204 16.8292 4.82905C16.8088 4.86327 16.8239 4.9092 16.8461 4.93892C17.5179 5.89531 17.9039 7.05973 17.9039 8.3097C17.9039 9.50744 17.5498 10.6241 16.9286 11.5508C16.8647 11.6463 16.9215 11.775 17.0342 11.7949C17.1904 11.8228 17.3501 11.8372 17.5134 11.8417C19.1419 11.8849 20.6034 10.8214 21.0072 9.21926ZM6.38638 4.70685C6.62953 4.70685 6.86292 4.73296 7.08922 4.77979C7.12028 4.787 7.15311 4.8014 7.17086 4.82932C7.19216 4.86354 7.17619 4.90947 7.15489 4.93919C6.48311 5.89468 6.09619 7.0591 6.09619 8.30997C6.09619 9.50771 6.45027 10.6235 7.07147 11.5511C7.13536 11.6465 7.07857 11.7753 6.96587 11.7951C6.81057 11.8221 6.64994 11.8374 6.48666 11.842C4.85823 11.8852 3.39665 10.8216 2.99376 9.21953C2.39386 6.84207 4.15007 4.70685 6.38638 4.70685Z" fill="#CDCDD0"/>
<path fill-rule="evenodd" clip-rule="evenodd" d="M22.7131 14.817C22.4149 14.1722 21.6952 13.73 20.601 13.513C20.0845 13.3851 18.6868 13.205 17.3868 13.2293C17.3672 13.232 17.3566 13.2455 17.3548 13.2545C17.3522 13.2671 17.3575 13.2887 17.3832 13.3022C17.984 13.6039 20.3064 14.916 20.0144 17.6834C20.002 17.8032 20.097 17.9068 20.215 17.8888C20.7865 17.8059 22.2569 17.4853 22.7131 16.4866C22.9651 15.9589 22.9651 15.3456 22.7131 14.817ZM11.9496 14.5399C8.53036 14.5399 5.64535 15.1037 5.64535 17.2794C5.64535 19.4561 8.549 20 11.9496 20C15.3689 20 18.2539 19.4363 18.2539 17.2605C18.2539 15.0839 15.3502 14.5399 11.9496 14.5399ZM1.28783 14.8167C1.58601 14.1719 2.30482 13.7297 3.39901 13.5127C3.91638 13.3848 5.31319 13.2047 6.61415 13.2299C6.63367 13.2317 6.64343 13.2452 6.64521 13.2542C6.64787 13.2677 6.64255 13.2884 6.6177 13.3029C6.01603 13.6045 3.69364 14.9166 3.9856 17.6832C3.99802 17.8038 3.90396 17.9065 3.78593 17.8885C3.21443 17.8065 1.74397 17.485 1.28783 16.4872C1.03492 15.9586 1.03492 15.3453 1.28783 14.8167Z" fill="#040415"/>
</svg>
